0
SECTION
2
HEADER
9
$INSUNITS
70
1
9
$ACADVER
1
AC1014
9
$HANDSEED
5
FFFF
0
ENDSEC
0
SECTION
2
TABLES
0
TABLE
2
VPORT
5
8
100
AcDbSymbolTable
0
ENDTAB
0
TABLE
2
LTYPE
5
5
100
AcDbSymbolTable
0
LTYPE
5
14
100
AcDbSymbolTableRecord
100
AcDbLinetypeTableRecord
2
BYBLOCK
70
0
0
LTYPE
5
15
100
AcDbSymbolTableRecord
100
AcDbLinetypeTableRecord
2
BYLAYER
70
0
0
ENDTAB
0
TABLE
2
LAYER
5
2
100
AcDbSymbolTable
70
2
0
LAYER
5
50
100
AcDbSymbolTableRecord
100
AcDbLayerTableRecord
2
0
70
0
6
CONTINUOUS
0
ENDTAB
0
TABLE
2
STYLE
5
3
100
AcDbSymbolTable
70
1
0
STYLE
5
11
100
AcDbSymbolTableRecord
100
AcDbTextStyleTableRecord
2
STANDARD
70
0
0
ENDTAB
0
TABLE
2
VIEW
5
6
100
AcDbSymbolTable
70
0
0
ENDTAB
0
TABLE
2
UCS
5
7
100
AcDbSymbolTable
70
0
0
ENDTAB
0
TABLE
2
APPID
5
9
100
AcDbSymbolTable
70
2
0
APPID
5
12
100
AcDbSymbolTableRecord
100
AcDbRegAppTableRecord
2
ACAD
70
0
0
ENDTAB
0
TABLE
2
DIMSTYLE
5
A
100
AcDbSymbolTable
70
1
0
ENDTAB
0
TABLE
2
BLOCK_RECORD
5
1
100
AcDbSymbolTable
70
1
0
BLOCK_RECORD
5
1F
100
AcDbSymbolTableRecord
100
AcDbBlockTableRecord
2
*MODEL_SPACE
0
BLOCK_RECORD
5
1B
100
AcDbSymbolTableRecord
100
AcDbBlockTableRecord
2
*PAPER_SPACE
0
ENDTAB
0
ENDSEC
0
SECTION
2
BLOCKS
0
BLOCK
5
20
100
AcDbEntity
100
AcDbBlockBegin
2
*MODEL_SPACE
0
ENDBLK
5
21
100
AcDbEntity
100
AcDbBlockEnd
0
BLOCK
5
1C
100
AcDbEntity
100
AcDbBlockBegin
2
*PAPER_SPACE
0
ENDBLK
5
1D
100
AcDbEntity
100
AcDbBlockEnd
0
ENDSEC
0
SECTION
2
ENTITIES
0
LWPOLYLINE
5
100
100
AcDbEntity
8
0
100
AcDbPolyline
90
8
70
1
43
0.0
10
-18.176776695296635
20
0.47000000000000047
42
-0.99999999999999989
10
-17.999999999999996
20
0.29322330470336377
10
-17.999999999999996
20
-0.07322330470336412
42
-0.99999999999999989
10
-18.176776695296635
20
-0.24999999999999975
10
-23.823223304703362
20
-0.25000000000000044
42
-0.99999999999999989
10
-24
20
-0.073223304703363801
10
-24
20
0.29322330470336422
42
-0.99999999999999989
10
-23.823223304703362
20
0.46999999999999975
0
LWPOLYLINE
5
101
100
AcDbEntity
8
0
100
AcDbPolyline
90
8
70
1
43
0.0
10
-18.176776695296635
20
4.1900000000000004
42
-0.99999999999999989
10
-17.999999999999996
20
4.0132233047033639
10
-17.999999999999996
20
3.6467766952966376
42
-0.99999999999999989
10
-18.176776695296635
20
3.4699999999999998
10
-23.823223304703362
20
3.4699999999999998
42
-0.99999999999999989
10
-24
20
3.6467766952966363
10
-24
20
4.0132233047033621
42
-0.99999999999999989
10
-23.823223304703362
20
4.1900000000000004
0
ARC
5
102
100
AcDbEntity
8
0
100
AcDbCircle
10
-18.088388347648319
20
7.8216116523516801
30
0
40
0.12499999999999971
210
-0
220
0
230
1
100
AcDbArc
50
-44.999999999999439
51
135.00000000000031
0
LINE
5
103
100
AcDbEntity
8
0
100
AcDbLine
10
-18
20
7.7332233047033627
30
0
11
-18
21
7.3667766952966351
31
0
0
ARC
5
104
100
AcDbEntity
8
0
100
AcDbCircle
10
-18.088388347648319
20
7.2783883476483178
30
0
40
0.12500000000000069
210
0
220
0
230
1
100
AcDbArc
50
-135
51
44.999999999999424
0
LINE
5
105
100
AcDbEntity
8
0
100
AcDbLine
10
-18.176776695296638
20
7.1899999999999986
30
0
11
-23.823223304703362
21
7.1899999999999986
31
0
0
ARC
5
106
100
AcDbEntity
8
0
100
AcDbCircle
10
-23.911611652351681
20
7.2783883476483178
30
0
40
0.12499999999999971
210
0
220
0
230
1
100
AcDbArc
50
135.0000000000006
51
315
0
LINE
5
107
100
AcDbEntity
8
0
100
AcDbLine
10
-24
20
7.3667766952966351
30
0
11
-24
21
7.7332233047033627
31
0
0
ARC
5
108
100
AcDbEntity
8
0
100
AcDbCircle
10
-23.911611652351681
20
7.8216116523516801
30
0
40
0.12500000000000069
210
0
220
-0
230
1
100
AcDbArc
50
45
51
224.99999999999943
0
LINE
5
109
100
AcDbEntity
8
0
100
AcDbLine
10
-23.823223304703362
20
7.9099999999999993
30
0
11
-18.176776695296638
21
7.9099999999999984
31
0
0
ARC
5
110
100
AcDbEntity
8
0
100
AcDbCircle
10
-18.088388347648319
20
11.54161165235168
30
0
40
0.12499999999999971
210
-0
220
0
230
1
100
AcDbArc
50
-44.999999999999439
51
135.0000000000006
0
LINE
5
111
100
AcDbEntity
8
0
100
AcDbLine
10
-18
20
11.453223304703362
30
0
11
-18
21
11.086776695296635
31
0
0
ARC
5
112
100
AcDbEntity
8
0
100
AcDbCircle
10
-18.088388347648319
20
10.998388347648318
30
0
40
0.12500000000000069
210
0
220
0
230
1
100
AcDbArc
50
-135
51
44.999999999999424
0
LINE
5
113
100
AcDbEntity
8
0
100
AcDbLine
10
-18.176776695296638
20
10.909999999999998
30
0
11
-23.823223304703362
21
10.909999999999998
31
0
0
ARC
5
114
100
AcDbEntity
8
0
100
AcDbCircle
10
-23.911611652351681
20
10.998388347648318
30
0
40
0.12499999999999971
210
0
220
0
230
1
100
AcDbArc
50
135.0000000000006
51
315
0
LINE
5
115
100
AcDbEntity
8
0
100
AcDbLine
10
-24
20
11.086776695296635
30
0
11
-24
21
11.453223304703362
31
0
0
ARC
5
116
100
AcDbEntity
8
0
100
AcDbCircle
10
-23.911611652351681
20
11.54161165235168
30
0
40
0.12500000000000069
210
0
220
-0
230
1
100
AcDbArc
50
45
51
224.99999999999943
0
LINE
5
117
100
AcDbEntity
8
0
100
AcDbLine
10
-23.823223304703362
20
11.629999999999999
30
0
11
-18.176776695296638
21
11.629999999999997
31
0
0
LWPOLYLINE
5
118
100
AcDbEntity
8
0
100
AcDbPolyline
90
6
70
1
43
0.0
10
-17.75
20
12.5
42
-0.41421356237309509
10
-17
20
11.75
10
-17
20
-1.5
10
-24.999999999999996
20
-1.4999999999999993
10
-24.999999999999996
20
11.75
42
-0.41421356237309392
10
-24.249999999999996
20
12.5
0
ENDSEC
0
SECTION
2
OBJECTS
0
DICTIONARY
5
C
100
AcDbDictionary
3
ACAD_GROUP
350
D
3
ACAD_MLINESTYLE
350
17
0
DICTIONARY
5
D
100
AcDbDictionary
0
DICTIONARY
5
1A
330
C
100
AcDbDictionary
0
DICTIONARY
5
17
100
AcDbDictionary
0
ENDSEC
0
EOF
