0
SECTION
2
HEADER
9
$INSUNITS
70
1
9
$ACADVER
1
AC1014
9
$HANDSEED
5
FFFF
0
ENDSEC
0
SECTION
2
TABLES
0
TABLE
2
VPORT
5
8
100
AcDbSymbolTable
0
ENDTAB
0
TABLE
2
LTYPE
5
5
100
AcDbSymbolTable
0
LTYPE
5
14
100
AcDbSymbolTableRecord
100
AcDbLinetypeTableRecord
2
BYBLOCK
70
0
0
LTYPE
5
15
100
AcDbSymbolTableRecord
100
AcDbLinetypeTableRecord
2
BYLAYER
70
0
0
ENDTAB
0
TABLE
2
LAYER
5
2
100
AcDbSymbolTable
70
2
0
LAYER
5
50
100
AcDbSymbolTableRecord
100
AcDbLayerTableRecord
2
0
70
0
6
CONTINUOUS
0
ENDTAB
0
TABLE
2
STYLE
5
3
100
AcDbSymbolTable
70
1
0
STYLE
5
11
100
AcDbSymbolTableRecord
100
AcDbTextStyleTableRecord
2
STANDARD
70
0
0
ENDTAB
0
TABLE
2
VIEW
5
6
100
AcDbSymbolTable
70
0
0
ENDTAB
0
TABLE
2
UCS
5
7
100
AcDbSymbolTable
70
0
0
ENDTAB
0
TABLE
2
APPID
5
9
100
AcDbSymbolTable
70
2
0
APPID
5
12
100
AcDbSymbolTableRecord
100
AcDbRegAppTableRecord
2
ACAD
70
0
0
ENDTAB
0
TABLE
2
DIMSTYLE
5
A
100
AcDbSymbolTable
70
1
0
ENDTAB
0
TABLE
2
BLOCK_RECORD
5
1
100
AcDbSymbolTable
70
1
0
BLOCK_RECORD
5
1F
100
AcDbSymbolTableRecord
100
AcDbBlockTableRecord
2
*MODEL_SPACE
0
BLOCK_RECORD
5
1B
100
AcDbSymbolTableRecord
100
AcDbBlockTableRecord
2
*PAPER_SPACE
0
ENDTAB
0
ENDSEC
0
SECTION
2
BLOCKS
0
BLOCK
5
20
100
AcDbEntity
100
AcDbBlockBegin
2
*MODEL_SPACE
0
ENDBLK
5
21
100
AcDbEntity
100
AcDbBlockEnd
0
BLOCK
5
1C
100
AcDbEntity
100
AcDbBlockBegin
2
*PAPER_SPACE
0
ENDBLK
5
1D
100
AcDbEntity
100
AcDbBlockEnd
0
ENDSEC
0
SECTION
2
ENTITIES
0
ARC
5
100
100
AcDbEntity
8
0
100
AcDbCircle
10
-24.088388347648319
20
-0.088388347648321333
30
0
40
0.12500000000000025
210
-0
220
0
230
1
100
AcDbArc
50
-44.999999999999751
51
135.00000120741856
0
LINE
5
101
100
AcDbEntity
8
0
100
AcDbLine
10
-24
20
-0.17677669529663964
30
0
11
-24
21
-0.72000000000000286
31
0
0
LINE
5
102
100
AcDbEntity
8
0
100
AcDbLine
10
-24
20
-0.72000000000000286
30
0
11
-17.999999999999996
21
-0.72000000000000208
31
0
0
LINE
5
103
100
AcDbEntity
8
0
100
AcDbLine
10
-17.999999999999996
20
-0.72000000000000208
30
0
11
-17.999999999999996
21
-0.17677669529663917
31
0
0
ARC
5
104
100
AcDbEntity
8
0
100
AcDbCircle
10
-17.911611652351681
20
-0.088388347648320736
30
0
40
0.12500000000000003
210
0
220
-0
230
1
100
AcDbArc
50
44.999999999999623
51
225.00000000000091
0
LINE
5
105
100
AcDbEntity
8
0
100
AcDbLine
10
-17.823223304703362
20
-2.7427753856389202e-15
30
0
11
0.72000000000000042
21
8.9928064994637723e-17
31
0
0
LINE
5
106
100
AcDbEntity
8
0
100
AcDbLine
10
0.72000000000000042
20
8.9928064994637723e-17
30
0
11
0.72000000000000008
21
1.9999999999999998
31
0
0
LINE
5
107
100
AcDbEntity
8
0
100
AcDbLine
10
0.72000000000000008
20
1.9999999999999998
30
0
11
0.17677669529663653
21
1.9999999999999998
31
0
0
ARC
5
108
100
AcDbEntity
8
0
100
AcDbCircle
10
0.088388347648318169
20
2.0883883476483183
30
0
40
0.12500000000000014
210
0
220
0
230
1
100
AcDbArc
50
135.00000000000009
51
314.99999999999994
0
LINE
5
109
100
AcDbEntity
8
0
100
AcDbLine
10
-3.3874915121436862e-16
20
2.1767766952966365
30
0
11
-3.1225022567582528e-16
21
2.5
31
0
0
ARC
5
110
100
AcDbEntity
8
0
100
AcDbCircle
10
-0.75000000000000078
20
2.4999999999999996
30
0
40
0.75000000000000033
210
0
220
-0
230
1
100
AcDbArc
50
0
51
90.000000000000014
0
LINE
5
111
100
AcDbEntity
8
0
100
AcDbLine
10
-0.750000000000001
20
3.25
30
0
11
-41.25
21
3.2499999999999951
31
0
0
ARC
5
112
100
AcDbEntity
8
0
100
AcDbCircle
10
-41.249999999999993
20
2.4999999999999893
30
0
40
0.75000000000000566
210
0
220
0
230
1
100
AcDbArc
50
90.00000000000054
51
180
0
LINE
5
113
100
AcDbEntity
8
0
100
AcDbLine
10
-42
20
2.4999999999999942
30
0
11
-42
21
2.1767766952966339
31
0
0
ARC
5
114
100
AcDbEntity
8
0
100
AcDbCircle
10
-42.088388347648312
20
2.0883883476483125
30
0
40
0.12500000000000266
210
0
220
0
230
1
100
AcDbArc
50
-135.00000000000009
51
45.00000000000302
0
LINE
5
115
100
AcDbEntity
8
0
100
AcDbLine
10
-42.176776695296631
20
1.9999999999999936
30
0
11
-42.719999999999999
21
1.9999999999999947
31
0
0
LINE
5
116
100
AcDbEntity
8
0
100
AcDbLine
10
-42.719999999999999
20
1.9999999999999947
30
0
11
-42.719999999999999
21
-5.2451481478353846e-15
31
0
0
LINE
5
117
100
AcDbEntity
8
0
100
AcDbLine
10
-42.719999999999999
20
-5.2451481478353846e-15
30
0
11
-24.176776697159283
21
-1.8626481726685917e-09
31
0
0
CIRCLE
5
118
100
AcDbEntity
8
0
100
AcDbCircle
10
-19.27272727272727
20
1.6249999999999971
30
0
40
1.4250000000000007
210
0
220
-0
230
1
0
CIRCLE
5
119
100
AcDbEntity
8
0
100
AcDbCircle
10
-33.090909090909101
20
1.6249999999999956
30
0
40
1.4250000000000007
210
0
220
-0
230
1
0
CIRCLE
5
120
100
AcDbEntity
8
0
100
AcDbCircle
10
-40
20
1.6249999999999947
30
0
40
1.4250000000000007
210
0
220
-0
230
1
0
CIRCLE
5
121
100
AcDbEntity
8
0
100
AcDbCircle
10
-26.181818181818183
20
1.6249999999999964
30
0
40
1.4250000000000007
210
0
220
-0
230
1
0
CIRCLE
5
122
100
AcDbEntity
8
0
100
AcDbCircle
10
-15.818181818181817
20
1.6249999999999976
30
0
40
1.4250000000000007
210
0
220
-0
230
1
0
CIRCLE
5
123
100
AcDbEntity
8
0
100
AcDbCircle
10
-8.9090909090909101
20
1.6249999999999987
30
0
40
1.4250000000000007
210
0
220
-0
230
1
0
CIRCLE
5
124
100
AcDbEntity
8
0
100
AcDbCircle
10
-36.545454545454547
20
1.6249999999999951
30
0
40
1.4250000000000007
210
0
220
-0
230
1
0
CIRCLE
5
125
100
AcDbEntity
8
0
100
AcDbCircle
10
-5.4545454545454541
20
1.6249999999999989
30
0
40
1.4249999999999994
210
0
220
-0
230
1
0
CIRCLE
5
126
100
AcDbEntity
8
0
100
AcDbCircle
10
-29.63636363636364
20
1.6249999999999958
30
0
40
1.4250000000000007
210
0
220
-0
230
1
0
CIRCLE
5
127
100
AcDbEntity
8
0
100
AcDbCircle
10
-12.363636363636363
20
1.6249999999999982
30
0
40
1.4250000000000007
210
0
220
-0
230
1
0
CIRCLE
5
128
100
AcDbEntity
8
0
100
AcDbCircle
10
-22.727272727272727
20
1.6249999999999969
30
0
40
1.4250000000000007
210
0
220
-0
230
1
0
CIRCLE
5
129
100
AcDbEntity
8
0
100
AcDbCircle
10
-2
20
1.6249999999999993
30
0
40
1.4249999999999998
210
0
220
-0
230
1
0
ENDSEC
0
SECTION
2
OBJECTS
0
DICTIONARY
5
C
100
AcDbDictionary
3
ACAD_GROUP
350
D
3
ACAD_MLINESTYLE
350
17
0
DICTIONARY
5
D
100
AcDbDictionary
0
DICTIONARY
5
1A
330
C
100
AcDbDictionary
0
DICTIONARY
5
17
100
AcDbDictionary
0
ENDSEC
0
EOF
