0
SECTION
2
HEADER
9
$INSUNITS
70
1
9
$ACADVER
1
AC1014
9
$HANDSEED
5
FFFF
0
ENDSEC
0
SECTION
2
TABLES
0
TABLE
2
VPORT
5
8
100
AcDbSymbolTable
0
ENDTAB
0
TABLE
2
LTYPE
5
5
100
AcDbSymbolTable
0
LTYPE
5
14
100
AcDbSymbolTableRecord
100
AcDbLinetypeTableRecord
2
BYBLOCK
70
0
0
LTYPE
5
15
100
AcDbSymbolTableRecord
100
AcDbLinetypeTableRecord
2
BYLAYER
70
0
0
ENDTAB
0
TABLE
2
LAYER
5
2
100
AcDbSymbolTable
70
2
0
LAYER
5
50
100
AcDbSymbolTableRecord
100
AcDbLayerTableRecord
2
0
70
0
6
CONTINUOUS
0
ENDTAB
0
TABLE
2
STYLE
5
3
100
AcDbSymbolTable
70
1
0
STYLE
5
11
100
AcDbSymbolTableRecord
100
AcDbTextStyleTableRecord
2
STANDARD
70
0
0
ENDTAB
0
TABLE
2
VIEW
5
6
100
AcDbSymbolTable
70
0
0
ENDTAB
0
TABLE
2
UCS
5
7
100
AcDbSymbolTable
70
0
0
ENDTAB
0
TABLE
2
APPID
5
9
100
AcDbSymbolTable
70
2
0
APPID
5
12
100
AcDbSymbolTableRecord
100
AcDbRegAppTableRecord
2
ACAD
70
0
0
ENDTAB
0
TABLE
2
DIMSTYLE
5
A
100
AcDbSymbolTable
70
1
0
ENDTAB
0
TABLE
2
BLOCK_RECORD
5
1
100
AcDbSymbolTable
70
1
0
BLOCK_RECORD
5
1F
100
AcDbSymbolTableRecord
100
AcDbBlockTableRecord
2
*MODEL_SPACE
0
BLOCK_RECORD
5
1B
100
AcDbSymbolTableRecord
100
AcDbBlockTableRecord
2
*PAPER_SPACE
0
ENDTAB
0
ENDSEC
0
SECTION
2
BLOCKS
0
BLOCK
5
20
100
AcDbEntity
100
AcDbBlockBegin
2
*MODEL_SPACE
0
ENDBLK
5
21
100
AcDbEntity
100
AcDbBlockEnd
0
BLOCK
5
1C
100
AcDbEntity
100
AcDbBlockBegin
2
*PAPER_SPACE
0
ENDBLK
5
1D
100
AcDbEntity
100
AcDbBlockEnd
0
ENDSEC
0
SECTION
2
ENTITIES
0
LWPOLYLINE
5
100
100
AcDbEntity
8
0
100
AcDbPolyline
90
8
70
1
43
0.0
10
-1.8232233047033619
20
10.910000000000002
42
-0.99999999999999989
10
-1.9999999999999984
20
11.086776695296637
10
-1.9999999999999978
20
11.453223304703359
42
-0.99999999999999989
10
-1.8232233047033619
20
11.630000000000001
10
-0.17677669529663564
20
11.629999999999997
42
-0.99999999999999989
10
1.1801583332629616e-15
20
11.453223304703362
10
5.4636959873285255e-16
20
11.08677669529664
42
-0.99999999999999989
10
-0.1767766952966347
20
10.91
0
LWPOLYLINE
5
101
100
AcDbEntity
8
0
100
AcDbPolyline
90
8
70
1
43
0.0
10
-1.8232233047033612
20
7.1900000000000031
42
-0.99999999999999989
10
-1.9999999999999978
20
7.3667766952966387
10
-1.9999999999999973
20
7.7332233047033601
42
-0.99999999999999989
10
-1.8232233047033617
20
7.910000000000001
10
-0.17677669529663564
20
7.9099999999999984
42
-0.99999999999999989
10
1.1801583332629616e-15
20
7.7332233047033627
10
5.4636959873285255e-16
20
7.3667766952966414
42
-0.99999999999999989
10
-0.1767766952966347
20
7.1900000000000004
0
ARC
5
102
100
AcDbEntity
8
0
100
AcDbCircle
10
-1.9116116523516802
20
3.5583883476483189
30
0
40
0.12499999999999971
210
0
220
0
230
1
100
AcDbArc
50
135
51
315
0
LINE
5
103
100
AcDbEntity
8
0
100
AcDbLine
10
-1.9999999999999984
20
3.6467766952966372
30
0
11
-1.9999999999999984
21
4.0132233047033639
31
0
0
ARC
5
104
100
AcDbEntity
8
0
100
AcDbCircle
10
-1.91161165235168
20
4.101611652351683
30
0
40
0.12499999999999944
210
0
220
-0
230
1
100
AcDbArc
50
44.999999999999567
51
225.00000000000023
0
LINE
5
105
100
AcDbEntity
8
0
100
AcDbLine
10
-1.8232233047033612
20
4.1900000000000004
30
0
11
-0.17677669529663539
21
4.1900000000000004
31
0
0
ARC
5
106
100
AcDbEntity
8
0
100
AcDbCircle
10
-0.088388347648316684
20
4.1016116523516812
30
0
40
0.1249999999999996
210
-0
220
0
230
1
100
AcDbArc
50
-45.00000000000005
51
134.99999999999986
0
LINE
5
107
100
AcDbEntity
8
0
100
AcDbLine
10
1.4096335647307597e-15
20
4.013223304703363
30
0
11
1.6065923097442865e-15
21
3.6467766952966372
31
0
0
ARC
5
108
100
AcDbEntity
8
0
100
AcDbCircle
10
-0.08838834764831667
20
3.5583883476483189
30
0
40
0.12500000000000042
210
0
220
0
230
1
100
AcDbArc
50
-134.9999999999998
51
45
0
LINE
5
109
100
AcDbEntity
8
0
100
AcDbLine
10
-0.17677669529663523
20
3.4699999999999998
30
0
11
-1.8232233047033619
21
3.4700000000000006
31
0
0
ARC
5
110
100
AcDbEntity
8
0
100
AcDbCircle
10
-1.9116117161802777
20
-0.16161165235168215
30
0
40
0.125
210
0
220
0
230
1
100
AcDbArc
50
134.9999999999998
51
314.99999999999983
0
LINE
5
111
100
AcDbEntity
8
0
100
AcDbLine
10
-2.0000000638285957
20
-0.073223304703363468
30
0
11
-2.0000000638285957
21
0.29322330470336272
31
0
0
ARC
5
112
100
AcDbEntity
8
0
100
AcDbCircle
10
-1.9116117161802777
20
0.38161165235168143
30
0
40
0.12499999999999997
210
0
220
-0
230
1
100
AcDbArc
50
44.999999999999858
51
225.00000000000023
0
LINE
5
113
100
AcDbEntity
8
0
100
AcDbLine
10
-1.823223368531959
20
0.4699999999999997
30
0
11
-0.17677669529663645
21
0.4699999999999997
31
0
0
ARC
5
114
100
AcDbEntity
8
0
100
AcDbCircle
10
-0.088388347648318086
20
0.38161165235168132
30
0
40
0.12499999999999999
210
0
220
0
230
1
100
AcDbArc
50
-44.99999999999995
51
135
0
LINE
5
115
100
AcDbEntity
8
0
100
AcDbLine
10
4.1524089503696795e-16
20
0.293223304703363
30
0
11
4.3709567898628207e-16
21
-0.073223304703363801
31
0
0
ARC
5
116
100
AcDbEntity
8
0
100
AcDbCircle
10
-0.088388347648318044
20
-0.16161165235168218
30
0
40
0.12499999999999999
210
0
220
0
230
1
100
AcDbArc
50
-135.00000000000026
51
44.999999999999964
0
LINE
5
117
100
AcDbEntity
8
0
100
AcDbLine
10
-0.17677669529663684
20
-0.25000000000000022
30
0
11
-1.8232233685319594
21
-0.25000000000000083
31
0
0
LWPOLYLINE
5
118
100
AcDbEntity
8
0
100
AcDbPolyline
90
10
70
1
43
0.0
10
0.2500000000000005
20
12.5
42
-0.41421356237309442
10
0.75000000000000033
20
12.000000000000002
10
0.75000000000000033
20
-1.4999999999999993
10
-5.4999999999999991
20
-1.4999999999999993
10
-5.4999999999999991
20
-1
42
-0.41421356237309614
10
-4.9999999999999991
20
-0.49999999999999994
10
-2.9999999999999996
20
-0.49999999999999989
42
0.41421356237309509
10
-2.4999999999999996
20
0
10
-2.4999999999999996
20
12
42
-0.4142135623730967
10
-1.9999999999999998
20
12.5
0
ENDSEC
0
SECTION
2
OBJECTS
0
DICTIONARY
5
C
100
AcDbDictionary
3
ACAD_GROUP
350
D
3
ACAD_MLINESTYLE
350
17
0
DICTIONARY
5
D
100
AcDbDictionary
0
DICTIONARY
5
1A
330
C
100
AcDbDictionary
0
DICTIONARY
5
17
100
AcDbDictionary
0
ENDSEC
0
EOF
